<svg width="69" height="68" viewBox="0 0 69 68" fill="none" xmlns="http://www.w3.org/2000/svg">
<path d="M65.3722 10.9871C71.9595 23.6378 66.9759 37.4079 60.2632 48.2812C59.4221 49.7609 58.6716 51.2859 58.0865 52.8839C56.9233 55.8625 56.7126 59.1057 55.8489 62.1696C54.9556 65.3327 52.2618 67.8152 48.2376 67.7159C41.9497 67.7577 40.0412 61.4837 35.2247 59.0831C31.1031 56.8409 25.4908 56.7451 21.2611 59.0448C18.0641 60.6899 16.1382 63.7886 13.2128 65.8619C9.98961 68.2469 5.06865 68.4802 2.34349 65.942C-0.0229598 63.6946 -0.0316723 60.145 0.00837797 57.0028C0.152907 51.4791 0.466347 45.5446 3.64599 40.5623C7.85649 33.6964 17.4755 29.7934 25.0276 32.6136C28.7035 34.109 28.7471 37.0423 29.5202 40.3551C30.0304 42.4319 31.4548 44.366 33.7081 44.897C34.3071 45.0449 34.9496 45.1059 35.5591 45.0328C36.1703 44.977 37.0793 44.3608 36.0292 44.1014C34.2844 43.6679 32.7329 42.8741 32.0451 41.0654C31.2389 38.8475 32.2697 36.2746 33.3807 34.2674C35.0454 31.2557 37.4345 28.6218 40.3024 26.787C41.9131 25.7477 43.6684 24.9869 45.5055 24.4717C48.06 23.7283 50.7904 23.5838 53.3936 23.0372C57.1932 22.3165 60.8117 20.0551 61.6144 16.2253C62.6209 11.1908 59.2863 6.01699 54.3984 3.77478C53.3745 3.26298 52.2949 2.87477 51.2884 2.47437C50.7451 2.2324 49.871 2.15232 49.7038 1.54999C49.5488 0.992917 50.0799 0.815354 50.5605 0.76487C51.4434 0.7022 52.4046 0.844946 53.3048 1.05559C58.4313 2.26547 62.9761 6.19281 65.3617 10.9662L65.3739 10.9906L65.3722 10.9871Z" fill="white"/>
</svg>
