<svg width="416" height="416" viewBox="0 0 416 416" fill="none" xmlns="http://www.w3.org/2000/svg">
<g filter="url(#filter0_d_539_7781)">
<rect x="8" y="4" width="400" height="400" rx="80" fill="#2F67F3"/>
<path d="M335.343 108.865C362.282 160.601 341.902 216.914 314.449 261.381C311.01 267.433 307.941 273.669 305.548 280.205C300.791 292.386 299.929 305.649 296.397 318.179C292.744 331.114 281.727 341.266 265.27 340.861C239.556 341.032 231.751 315.374 212.053 305.556C195.198 296.387 172.246 295.995 154.949 305.4C141.874 312.127 133.998 324.8 122.034 333.279C108.853 343.032 88.7285 343.986 77.5838 333.606C67.9061 324.415 67.8705 309.899 68.0343 297.049C68.6253 274.459 69.9071 250.19 82.9105 229.814C100.13 201.736 139.467 185.775 170.352 197.308C185.385 203.423 185.563 215.419 188.724 228.967C190.811 237.46 196.636 245.37 205.851 247.541C208.301 248.146 210.928 248.396 213.421 248.097C215.92 247.869 219.638 245.349 215.343 244.288C208.208 242.515 201.863 239.269 199.05 231.872C195.753 222.802 199.969 212.28 204.512 204.071C211.32 191.755 221.09 180.983 232.819 173.48C239.406 169.229 246.584 166.118 254.097 164.011C264.544 160.971 275.71 160.38 286.356 158.145C301.895 155.197 316.693 145.949 319.975 130.287C324.091 109.698 310.454 88.5396 290.465 79.37C286.278 77.2769 281.863 75.6893 277.747 74.0519C275.525 73.0623 271.95 72.7349 271.266 70.2716C270.632 67.9934 272.804 67.2673 274.77 67.0608C278.38 66.8045 282.311 67.3883 285.993 68.2497C306.958 73.1976 325.544 89.2587 335.3 108.78L335.35 108.879L335.343 108.865Z" fill="white"/>
</g>
<defs>
<filter id="filter0_d_539_7781" x="0" y="0" width="416" height="416" filterUnits="userSpaceOnUse" color-interpolation-filters="sRGB">
<feFlood flood-opacity="0" result="BackgroundImageFix"/>
<feColorMatrix in="SourceAlpha" type="matrix" values="0 0 0 0 0 0 0 0 0 0 0 0 0 0 0 0 0 0 127 0" result="hardAlpha"/>
<feOffset dy="4"/>
<feGaussianBlur stdDeviation="4"/>
<feComposite in2="hardAlpha" operator="out"/>
<feColorMatrix type="matrix" values="0 0 0 0 0 0 0 0 0 0 0 0 0 0 0 0 0 0 0.15 0"/>
<feBlend mode="normal" in2="BackgroundImageFix" result="effect1_dropShadow_539_7781"/>
<feBlend mode="normal" in="SourceGraphic" in2="effect1_dropShadow_539_7781" result="shape"/>
</filter>
</defs>
</svg>
